<?xml version="1.0" standalone="no"?>
<!DOCTYPE svg PUBLIC "-//W3C//DTD SVG 20010904//EN"
 "http://www.w3.org/TR/2001/REC-SVG-20010904/DTD/svg10.dtd">
<svg version="1.0" xmlns="http://www.w3.org/2000/svg"
 width="638.000000pt" height="638.000000pt" viewBox="0 0 638.000000 638.000000"
 preserveAspectRatio="xMidYMid meet">
<metadata>
Created by potrace 1.11, written by Peter Selinger 2001-2013
</metadata>
<g transform="translate(0.000000,638.000000) scale(0.100000,-0.100000)"
fill="#000000" stroke="none">
<path d="M3114 6196 c-18 -8 -49 -30 -70 -48 -22 -19 -189 -160 -373 -314
-184 -153 -465 -389 -625 -523 -464 -389 -1067 -893 -1360 -1138 -119 -99
-178 -155 -193 -184 l-23 -42 0 -1811 c1 -1925 -1 -1855 47 -1908 10 -11 35
-29 55 -39 36 -19 105 -19 2629 -19 l2592 0 43 25 c23 14 53 42 66 62 l23 38
3 1800 c2 1293 0 1815 -8 1852 -14 65 -19 69 -390 379 -157 131 -575 481 -929
778 -354 298 -688 577 -741 621 -53 44 -198 165 -321 269 -123 103 -238 194
-256 202 -41 18 -128 17 -169 0z m1343 -1537 c29 -23 90 -73 136 -113 46 -39
237 -197 423 -351 186 -154 356 -296 377 -316 l37 -37 0 -1626 0 -1627 -24
-24 c-13 -13 -39 -26 -57 -30 -19 -3 -258 -5 -531 -3 l-498 3 -27 28 -28 27
-5 738 c-3 405 -6 738 -8 739 -1 1 -15 9 -32 18 -25 13 -110 15 -624 15 l-595
0 -28 -24 -28 -24 -3 -450 -3 -451 -30 -25 -31 -26 -523 0 -524 0 -28 24 -28
24 -2 1339 c-2 1057 0 1343 10 1363 7 14 28 33 47 42 32 16 79 18 528 18 525
0 546 -2 571 -48 7 -14 11 -122 11 -312 0 -330 2 -341 68 -360 25 -8 218 -10
619 -8 l582 3 23 23 23 23 5 708 c5 691 6 709 25 731 46 51 94 48 172 -11z"/>
</g>
</svg>
